<svg xmlns="http://www.w3.org/2000/svg" width="1200" height="720" viewBox="0 0 1200 720" role="img" aria-labelledby="title desc">
  <title id="title">Meeting Summarizer demo thumbnail</title>
  <desc id="desc">Stylized meeting notes transformed into summary cards.</desc>
  <rect width="1200" height="720" fill="#10151a"/>
  <rect x="110" y="110" width="420" height="500" rx="30" fill="#17212b" stroke="#35485c" stroke-width="4"/>
  <rect x="670" y="130" width="380" height="140" rx="28" fill="#193047" stroke="#8de0fe" stroke-width="4"/>
  <rect x="670" y="320" width="380" height="120" rx="28" fill="#2d2a4b" stroke="#f8d347" stroke-width="4"/>
  <rect x="670" y="490" width="380" height="100" rx="28" fill="#203b35" stroke="#78f0b3" stroke-width="4"/>
  <rect x="160" y="180" width="270" height="20" rx="10" fill="#8de0fe"/>
  <rect x="160" y="235" width="300" height="18" rx="9" fill="#53657a"/>
  <rect x="160" y="280" width="250" height="18" rx="9" fill="#53657a"/>
  <rect x="160" y="325" width="315" height="18" rx="9" fill="#53657a"/>
  <path d="M540 360 C590 360 610 260 660 240" fill="none" stroke="#8de0fe" stroke-width="10" stroke-linecap="round"/>
  <path d="M540 360 C595 360 610 390 660 390" fill="none" stroke="#f8d347" stroke-width="10" stroke-linecap="round"/>
  <path d="M540 360 C590 360 612 510 660 530" fill="none" stroke="#78f0b3" stroke-width="10" stroke-linecap="round"/>
  <text x="86" y="78" fill="#ffffff" font-family="Arial, sans-serif" font-size="58" font-weight="700">Meeting Summarizer</text>
  <text x="720" y="215" fill="#ffffff" font-family="Arial, sans-serif" font-size="34" font-weight="700">Recap</text>
  <text x="720" y="392" fill="#ffffff" font-family="Arial, sans-serif" font-size="34" font-weight="700">Tasks</text>
  <text x="720" y="550" fill="#ffffff" font-family="Arial, sans-serif" font-size="34" font-weight="700">Search</text>
</svg>
